<?xml version="1.0" encoding="iso-8859-1"?>
<!-- Generator: Adobe Illustrator 16.0.0, SVG Export Plug-In . SVG Version: 6.00 Build 0)  -->
<!DOCTYPE svg PUBLIC "-//W3C//DTD SVG 1.1//EN" "http://www.w3.org/Graphics/SVG/1.1/DTD/svg11.dtd">
<svg version="1.1" id="Capa_1" xmlns="http://www.w3.org/2000/svg" xmlns:xlink="http://www.w3.org/1999/xlink" x="0px" y="0px"
	 width="446.843px" height="446.843px" viewBox="0 0 446.843 446.843" style="enable-background:new 0 0 446.843 446.843;"
	 xml:space="preserve">
<g>
	<path d="M444.09,93.103c-2.698-3.699-7.006-5.888-11.584-5.888H109.92c-0.625,0-1.249,0.038-1.85,0.119l-13.276-38.27
		c-1.376-3.958-4.406-7.113-8.3-8.646L19.586,14.134c-7.374-2.887-15.695,0.735-18.591,8.1c-2.891,7.369,0.73,15.695,8.1,18.591
		l60.768,23.872l74.381,214.399c-3.283,1.144-6.065,3.663-7.332,7.187l-21.506,59.739c-1.318,3.663-0.775,7.733,1.468,10.916
		c2.24,3.183,5.883,5.078,9.773,5.078h11.044c-6.844,7.616-11.044,17.646-11.044,28.675c0,23.718,19.298,43.012,43.012,43.012
		s43.012-19.294,43.012-43.012c0-11.029-4.2-21.059-11.044-28.675h93.776c-6.847,7.616-11.048,17.646-11.048,28.675
		c0,23.718,19.294,43.012,43.013,43.012c23.718,0,43.012-19.294,43.012-43.012c0-11.029-4.2-21.059-11.043-28.675h13.433
		c6.599,0,11.947-5.349,11.947-11.948c0-6.599-5.349-11.947-11.947-11.947H143.647l13.319-36.996
		c1.72,0.724,3.578,1.152,5.523,1.152h210.278c6.234,0,11.751-4.027,13.65-9.959l59.739-186.387
		C447.557,101.567,446.788,96.802,444.09,93.103z M169.659,409.807c-10.543,0-19.116-8.573-19.116-19.116
		s8.573-19.117,19.116-19.117s19.116,8.574,19.116,19.117S180.202,409.807,169.659,409.807z M327.367,409.807
		c-10.543,0-19.117-8.573-19.117-19.116s8.574-19.117,19.117-19.117c10.542,0,19.116,8.574,19.116,19.117
		S337.909,409.807,327.367,409.807z M402.52,148.149h-73.161V115.89h83.499L402.52,148.149z M381.453,213.861h-52.094v-37.038
		h63.967L381.453,213.861z M234.571,213.861v-37.038h66.113v37.038H234.571z M300.684,242.538v31.064h-66.113v-31.064H300.684z
		 M139.115,176.823h66.784v37.038h-53.933L139.115,176.823z M234.571,148.149V115.89h66.113v32.259H234.571z M205.898,115.89v32.259
		h-76.734l-11.191-32.259H205.898z M161.916,242.538h43.982v31.064h-33.206L161.916,242.538z M329.359,273.603v-31.064h42.909
		l-9.955,31.064H329.359z"/>
</g>
<g>
</g>
<g>
</g>
<g>
</g>
<g>
</g>
<g>
</g>
<g>
</g>
<g>
</g>
<g>
</g>
<g>
</g>
<g>
</g>
<g>
</g>
<g>
</g>
<g>
</g>
<g>
</g>
<g>
</g>
</svg>
