<?xml version="1.0" encoding="iso-8859-1"?>
<!-- Generator: Adobe Illustrator 19.0.0, SVG Export Plug-In . SVG Version: 6.00 Build 0)  -->
<svg version="1.1" id="Capa_1" xmlns="http://www.w3.org/2000/svg" xmlns:xlink="http://www.w3.org/1999/xlink" x="0px" y="0px"
	 viewBox="0 0 53.734 53.734" style="enable-background:new 0 0 53.734 53.734;" xml:space="preserve">
<path d="M52.95,43.011L32.108,23.144c3.086-6.662,2.125-13.407-2.632-18.164C26.264,1.769,21.995,0,17.454,0
	C12.437,0,7.693,2.21,4.438,6.063c-5.673,6.718-5.203,16.835,1.071,23.032c3.061,3.024,7.113,4.689,11.409,4.689
	c1.743,0,3.492-0.266,5.207-0.792l2.395,2.442c0.188,0.191,0.445,0.3,0.714,0.3h4.027v3c0,0.553,0.448,1,1,1h3v3
	c0,0.553,0.448,1,1,1h4v4c0,0.553,0.448,1,1,1h2v1.776c0,0.965,0.083,1.503,0.843,2.263c0.556,0.558,1.295,0.897,2.157,0.961h8
	c0.552,0,1-0.447,1-1v-9C53.26,43.461,53.148,43.199,52.95,43.011z M17.455,17c-1.133,1.134-2.64,1.758-4.243,1.758
	S10.103,18.134,8.97,17c-1.133-1.133-1.757-2.64-1.757-4.242S7.836,9.648,8.97,8.515c1.133-1.133,2.64-1.757,4.243-1.757
	s3.109,0.624,4.243,1.757c1.133,1.134,1.757,2.641,1.757,4.243S18.588,15.867,17.455,17z"/>

</svg>
